<?xml version="1.0" encoding="iso-8859-1"?>
<!-- Generator: Adobe Illustrator 19.0.0, SVG Export Plug-In . SVG Version: 6.00 Build 0)  -->
<svg version="1.1" id="Capa_1" xmlns="http://www.w3.org/2000/svg" xmlns:xlink="http://www.w3.org/1999/xlink" x="0px" y="0px"
	 viewBox="0 0 512 512" style="enable-background:new 0 0 512 512;" xml:space="preserve">
<g>
	<g>
		<circle cx="290.909" cy="23.273" r="23.273"/>
	</g>
</g>
<g>
	<g>
		<circle cx="209.455" cy="104.727" r="23.273"/>
	</g>
</g>
<g>
	<g>
		<circle cx="314.182" cy="93.091" r="11.636"/>
	</g>
</g>
<g>
	<g>
		<circle cx="256" cy="69.818" r="11.636"/>
	</g>
</g>
<g>
	<g>
		<circle cx="256" cy="407.273" r="11.636"/>
	</g>
</g>
<g>
	<g>
		<circle cx="337.454" cy="407.273" r="11.636"/>
	</g>
</g>
<g>
	<g>
		<circle cx="192" cy="413.091" r="5.818"/>
	</g>
</g>
<g>
	<g>
		<circle cx="209.455" cy="465.455" r="11.636"/>
	</g>
</g>
<g>
	<g>
		<circle cx="250.182" cy="448" r="5.818"/>
	</g>
</g>
<g>
	<g>
		<circle cx="296.727" cy="424.727" r="5.818"/>
	</g>
</g>
<g>
	<g>
		<circle cx="343.273" cy="448" r="5.818"/>
	</g>
</g>
<g>
	<g>
		<circle cx="168.727" cy="459.636" r="5.818"/>
	</g>
</g>
<g>
	<g>
		<path d="M423.564,451.491l-79.127-114.036c-11.636-17.455-18.618-38.4-18.618-59.345v-87.273c0-5.818,2.327-11.636,5.818-16.291
			h5.818c6.982,0,11.636-4.655,11.636-11.636c0-6.982-4.655-11.636-11.636-11.636h-38.4c2.327-3.491,3.491-6.982,3.491-11.636
			c0-12.8-10.473-23.273-23.273-23.273c-12.8,0-23.273,10.473-23.273,23.273c0,4.655,1.164,8.145,3.491,11.636h-84.945
			c-6.982,0-11.636,4.655-11.636,11.636c0,6.982,4.655,11.636,11.636,11.636h130.327c-2.327,4.655-2.327,10.473-2.327,16.291v87.273
			c0,25.6,8.145,51.2,23.273,73.309c-30.255-3.491-62.836,0-86.109,11.636c-17.455,8.145-43.055,11.636-67.491,9.309l13.964-20.945
			c15.127-20.945,23.273-46.545,23.273-73.309v-68.655c0-6.982-4.655-11.636-11.636-11.636s-11.636,4.655-11.636,11.636v68.655
			c0,20.945-6.982,41.891-18.618,59.345L88.436,451.491c-4.655,6.982-6.982,13.964-6.982,22.109c0,20.945,17.455,38.4,38.4,38.4
			h272.291c20.945,0,38.4-17.455,38.4-38.4C430.545,465.455,428.218,458.473,423.564,451.491z M392.145,488.727H119.855
			c-8.145,0-15.127-6.982-15.127-15.127c0-3.491,1.164-5.818,2.327-8.146l50.036-72.145c9.309,1.164,18.618,2.327,29.091,2.327
			c23.273,0,45.382-4.655,62.836-12.8c25.6-12.8,65.164-13.964,95.418-3.491l59.345,86.109c1.164,2.327,2.327,5.818,2.327,8.146
			C407.273,481.745,400.291,488.727,392.145,488.727z"/>
	</g>
</g>
<g>
</g>
<g>
</g>
<g>
</g>
<g>
</g>
<g>
</g>
<g>
</g>
<g>
</g>
<g>
</g>
<g>
</g>
<g>
</g>
<g>
</g>
<g>
</g>
<g>
</g>
<g>
</g>
<g>
</g>
</svg>
